<?xml version="1.0" encoding="utf-8"?>
<!-- Generator: Adobe Illustrator 21.1.0, SVG Export Plug-In . SVG Version: 6.00 Build 0)  -->
<svg version="1.1" id="Layer_1" xmlns="http://www.w3.org/2000/svg" xmlns:xlink="http://www.w3.org/1999/xlink" x="0px" y="0px"
	 viewBox="0 0 250 250" style="enable-background:new 0 0 250 250;" xml:space="preserve">
<style type="text/css">
	.st0{fill:#F03A17;}
	.st1{fill:#FFFFFF;}
</style>
<title>favicon</title>
<g>
	<path d="M215.9,0H34.1C15.3,0,0,15.3,0,34.1l0,0v181.8C0,234.7,15.3,250,34.1,250h181.8c18.8,0,34.1-15.3,34.1-34.1V34.1
		C250,15.3,234.7,0,215.9,0z M83.7,228.3H42.3c-11.4,0-20.7-9.3-20.7-20.7l0,0V187h20.7v20.7h41.3L83.7,228.3L83.7,228.3z
		 M83.7,176.7h-62V156h62V176.7z M156,156c0,11.4-9.3,20.7-20.7,20.7v31l0,0c0,11.4-9.3,20.7-20.7,20.7v-51.7H94V156h20.7v-10.3
		h20.7V156H156L156,156z M228.3,207.7c0,11.4-9.3,20.7-20.7,20.7h-41.3v-20.7H228.3L228.3,207.7z M228.3,176.7v20.7H187
		c-11.4,0-20.7-9.3-20.7-20.7l0,0V156H187v20.7h20.7V156h20.7L228.3,176.7z M228.3,135.3H21.7v-93c0-11.4,9.3-20.7,20.7-20.7l0,0
		h165.3c11.4,0,20.7,9.3,20.7,20.7L228.3,135.3z"/>
	<path class="st0" d="M228.3,135.3H21.7v-93c0-11.4,9.3-20.7,20.7-20.7l0,0h165.3c11.4,0,20.7,9.3,20.7,20.7v93H228.3z"/>
	<path class="st1" d="M125,73.2c-34.1,0-61.8,27.7-61.8,61.8h123.7C186.8,100.9,159.1,73.2,125,73.2z"/>
	<path class="st1" d="M83.7,228.3H42.3c-11.4,0-20.7-9.3-20.7-20.7l0,0V187h20.7v20.7h41.3L83.7,228.3L83.7,228.3z"/>
	<rect x="21.7" y="156" class="st1" width="62" height="20.7"/>
	<path class="st1" d="M156,156c0,11.4-9.3,20.7-20.7,20.7v31l0,0c0,11.4-9.3,20.7-20.7,20.7v-51.7H94V156h20.7v-10.3h20.7V156H156
		L156,156z"/>
	<path class="st1" d="M228.3,207.7c0,11.4-9.3,20.7-20.7,20.7h-41.3v-20.7H228.3L228.3,207.7z"/>
	<path class="st1" d="M228.3,176.7v20.7H187c-11.4,0-20.7-9.3-20.7-20.7l0,0V156H187v20.7h20.7V156h20.7L228.3,176.7z"/>
</g>
</svg>
